<svg xmlns="http://www.w3.org/2000/svg" version="1.1" xmlns:xlink="http://www.w3.org/1999/xlink" width="512" height="512" x="0" y="0" viewBox="0 0 24 24" style="enable-background:new 0 0 512 512" xml:space="preserve" class=""><g><g data-name="Flat Color"><path fill="#fcbf49" d="M22 9v8.59A3.41 3.41 0 0 1 18.59 21H5.41A3.41 3.41 0 0 1 2 17.59V7a4 4 0 0 1 4-4h4.39a2 2 0 0 1 1.11.34l2 1.32a2 2 0 0 0 1.11.34H18a4 4 0 0 1 4 4z" data-original="#fcbf49" class=""></path><path fill="#e89236" d="M22 9H2V7a4 4 0 0 1 4-4h4.39a2 2 0 0 1 1.11.34l2 1.32a2 2 0 0 0 1.11.34H18a4 4 0 0 1 4 4z" data-original="#e89236" class=""></path></g></g></svg>